<svg xmlns="http://www.w3.org/2000/svg" width="94" height="33" xmlns:xlink="http://www.w3.org/1999/xlink" viewBox="0 0 94 33">
    <defs>
        <path id="a" d="M0 .244h93.452v33.308H0"/>
    </defs>
    <g fill="none" fill-rule="evenodd">
        <g transform="translate(0 -1)">
            <mask id="b" fill="#ffffff">
                <use xlink:href="#a"/>
            </mask>
            <path fill="#000000" d="M88.564 14.577c-1.583.67-1.763 1.278-1.763 3.003v5.238c0 2.46-.9 3.674-2.841 3.674-1.942 0-2.842-1.214-2.842-3.674V12.693c0-2.46.9-3.643 2.842-3.643 1.115 0 2.014.511 2.697 1.598 1.187-1.118 2.518-1.693 3.849-1.693 1.582 0 2.877 1.15 2.877 2.491 0 2.013-2.518 2.172-4.82 3.131M69.646 26.78c-5.503 0-8.56-2.556-8.56-7.38v-6.707c0-2.46.9-3.643 2.841-3.643 1.907 0 2.805 1.183 2.805 3.643v5.685c0 2.364.612 3.674 2.914 3.674s2.913-1.31 2.913-3.674v-5.685c0-2.46.9-3.643 2.841-3.643 1.943 0 2.806 1.183 2.806 3.643V19.4c0 4.823-3.057 7.379-8.56 7.379M49.073 13.65c-2.087 0-3.705 1.598-3.705 4.122 0 2.587 1.583 4.216 3.705 4.216 2.121 0 3.74-1.661 3.74-4.216 0-2.524-1.655-4.121-3.74-4.121m7.804 16.131c-1.654 2.46-4.604 3.77-8.632 3.77-5.18 0-8.308-1.693-8.308-3.674 0-1.278 1.042-2.204 2.445-2.204 1.403 0 3.094 1.342 6.079 1.342 2.77 0 4.423-1.502 4.423-4.249 0-.191-.036-.383-.036-.607-1.222 1.565-2.913 2.364-5.142 2.364-4.46 0-8.2-3.641-8.2-8.752 0-5.111 3.991-8.913 8.81-8.913 1.943 0 3.382.575 4.532 1.789.648-1.055 1.655-1.598 2.518-1.598 1.943 0 2.842 1.183 2.842 3.643v10.125c0 3.035-.216 5.335-1.331 6.964m-22.48-3.29c-1.941 0-2.805-1.214-2.805-3.674v-5.685c0-2.556-.755-3.834-2.59-3.834-2.05 0-2.84 1.278-2.84 3.77v5.75c0 2.46-.9 3.673-2.842 3.673-1.942 0-2.841-1.214-2.841-3.674v-5.685c0-2.556-.72-3.834-2.554-3.834-2.05 0-2.841 1.278-2.841 3.77v5.75c0 2.46-.9 3.673-2.841 3.673-1.943 0-2.842-1.214-2.842-3.674V12.693c0-2.46.899-3.643 2.842-3.643 1.114 0 2.013.511 2.697 1.598 1.187-1.15 2.625-1.661 4.532-1.661 2.445 0 4.316.799 5.646 2.364 1.726-1.693 3.382-2.364 5.719-2.364 3.92 0 6.402 2.268 6.402 6.612v7.22c0 2.46-.9 3.673-2.842 3.673M3.43 9.05c1.907 0 2.805 1.183 2.805 3.643v10.125c0 2.46-.862 3.674-2.805 3.674-1.942 0-2.841-1.214-2.841-3.674V12.693c0-2.46.9-3.643 2.841-3.643" mask="url(#b)"/>
        </g>
        <path fill="#00c388" d="M0 3c0-1.648 1.586-3 3.52-3C5.453 0 7 1.352 7 3c0 1.681-1.547 3-3.48 3C1.547 6 0 4.681 0 3z"/>
    </g>
</svg>
